<?xml version="1.0" standalone="no"?>
<!DOCTYPE svg PUBLIC "-//W3C//DTD SVG 20010904//EN"
 "http://www.w3.org/TR/2001/REC-SVG-20010904/DTD/svg10.dtd">
<svg version="1.0" xmlns="http://www.w3.org/2000/svg"
 width="800.000000pt" height="800.000000pt" viewBox="0 0 800.000000 800.000000"
 preserveAspectRatio="xMidYMid meet">
<metadata>
Created by potrace 1.11, written by Peter Selinger 2001-2013
</metadata>
<g transform="translate(0.000000,800.000000) scale(0.100000,-0.100000)"
fill="#000000" stroke="none">
<path d="M3895 7194 c-109 -12 -208 -28 -260 -41 -347 -85 -739 -236 -943
-364 -215 -134 -495 -366 -647 -535 -39 -42 -74 -82 -80 -88 -65 -72 -171
-220 -238 -331 -39 -65 -150 -285 -187 -370 -57 -131 -47 -104 -129 -365 -29
-91 -63 -199 -76 -240 -14 -41 -31 -104 -39 -140 -9 -36 -25 -95 -36 -130 -20
-61 -49 -165 -107 -375 -195 -717 -269 -1222 -318 -2155 -8 -162 -20 -367 -25
-455 -47 -753 -63 -1353 -44 -1544 l7 -61 45 0 45 0 -7 152 c-10 227 9 742 54
1453 6 88 19 336 30 550 27 511 56 807 115 1150 68 391 195 920 320 1320 24
77 64 212 89 300 86 297 120 391 231 630 181 393 506 765 929 1064 196 138
384 227 696 331 281 93 458 122 783 128 261 4 333 -2 576 -49 281 -56 740
-270 1008 -471 52 -40 122 -104 161 -151 187 -221 274 -334 328 -427 86 -150
234 -466 234 -498 0 -6 20 -70 44 -144 140 -419 199 -677 270 -1168 35 -237
78 -735 101 -1160 26 -492 26 -490 57 -553 65 -129 95 -283 86 -437 -6 -94
-32 -169 -92 -268 -49 -81 -79 -108 -171 -156 l-80 -41 -145 1 c-155 1 -222
11 -465 70 -205 51 -335 104 -335 138 0 19 34 24 110 14 36 -5 133 -11 217
-14 253 -10 390 22 472 111 111 120 151 321 92 458 -19 43 -24 48 -48 45 l-28
-3 0 -125 c0 -137 -9 -182 -54 -251 -39 -62 -90 -99 -159 -116 -66 -16 -405
-29 -475 -19 l-47 7 0 53 0 53 54 12 c93 21 212 85 275 149 102 103 133 193
175 505 56 413 57 430 57 750 -1 302 -7 370 -36 427 -31 61 -143 130 -209 130
-20 0 -21 6 -22 113 -1 188 -56 318 -166 391 -99 66 -221 67 -463 5 -44 -11
-126 -23 -182 -26 -101 -6 -104 -5 -167 26 -36 17 -94 58 -129 90 -142 128
-215 157 -377 148 -164 -9 -268 -64 -435 -228 -157 -154 -216 -169 -377 -98
-146 65 -228 81 -382 77 -116 -3 -137 -6 -179 -28 -92 -47 -146 -134 -147
-234 0 -90 41 -157 128 -212 2 -1 -23 -28 -56 -60 -121 -122 -113 -248 25
-389 65 -66 117 -103 222 -155 94 -47 363 -139 506 -173 193 -47 443 -71 580
-57 206 21 279 36 479 101 33 10 61 17 63 15 2 -2 -3 -77 -12 -167 -9 -90 -18
-240 -22 -334 -4 -145 -2 -189 16 -295 48 -285 143 -414 336 -457 72 -17 129
-27 138 -25 8 2 9 -58 1 -108 l-6 -35 -151 8 c-84 5 -272 6 -418 3 -349 -8
-500 4 -759 59 -36 8 -85 17 -110 21 -87 13 -320 84 -417 128 -248 112 -430
251 -642 489 -27 31 -43 34 -66 11 -33 -33 -1 -93 116 -218 216 -231 515 -398
874 -490 143 -36 398 -84 512 -97 63 -6 259 -8 543 -4 454 7 523 3 551 -31 8
-10 5 -19 -17 -39 -82 -76 -247 -136 -589 -214 -89 -21 -331 -52 -514 -66
-602 -47 -1136 19 -1466 180 -60 29 -182 101 -270 159 -88 58 -167 106 -176
106 -9 0 -24 -9 -34 -20 -28 -31 -9 -59 92 -129 325 -230 536 -316 918 -376
315 -50 609 -56 1015 -20 347 29 685 102 893 191 45 20 88 38 95 41 9 4 12
-10 12 -51 0 -70 18 -114 59 -149 44 -36 98 -37 141 -1 50 42 75 107 95 242 8
48 4 48 110 5 172 -69 569 -141 711 -129 102 9 255 72 327 136 19 16 37 30 41
30 3 0 6 -15 6 -32 0 -18 10 -114 21 -213 20 -162 22 -236 23 -730 0 -302 -2
-569 -7 -593 l-7 -42 54 0 54 0 7 42 c3 24 9 261 11 528 6 513 6 509 -47 1000
l-22 205 28 70 c65 160 37 454 -59 619 -22 38 -24 57 -35 296 -36 777 -73
1215 -142 1650 -23 149 -28 171 -86 410 -100 413 -206 713 -356 1010 -113 222
-158 291 -336 515 -153 191 -261 297 -386 380 -195 127 -227 144 -500 270
-312 143 -624 206 -1008 204 -116 -1 -225 -4 -242 -5z m804 -2605 c49 -11 102
-46 176 -115 57 -52 132 -104 191 -130 30 -13 66 -17 154 -17 99 0 132 4 235
32 69 19 156 35 205 38 78 5 90 3 137 -20 47 -24 95 -72 121 -123 14 -28 34
-179 30 -234 l-3 -43 -200 -3 c-199 -3 -287 -14 -384 -48 -24 -9 -47 -16 -51
-16 -4 0 -5 20 -3 44 5 38 2 48 -20 70 -22 22 -35 26 -80 26 -47 0 -60 -5
-108 -40 -73 -54 -116 -72 -239 -104 -232 -60 -286 -68 -495 -73 -432 -11
-871 75 -1102 216 -138 84 -151 180 -37 267 33 26 47 29 125 32 115 5 223 -17
368 -75 110 -44 116 -45 200 -41 115 6 153 26 276 153 55 56 125 118 155 137
106 67 238 93 349 67z m531 -637 c0 -29 -66 -150 -103 -190 -34 -37 -72 -52
-143 -59 -64 -6 -263 10 -334 27 -32 7 -32 8 -8 9 59 2 336 78 364 99 12 9 56
45 99 80 86 70 125 81 125 34z m-1860 -76 c222 -89 606 -156 891 -156 58 0 90
-5 117 -19 38 -19 217 -51 402 -72 94 -10 240 -9 280 2 9 2 14 -2 12 -11 -2
-8 -13 -51 -23 -95 -42 -172 -38 -162 -78 -173 -20 -6 -76 -23 -126 -37 -300
-89 -567 -97 -895 -29 -130 27 -411 116 -511 161 -173 79 -309 210 -309 297 0
60 88 166 139 166 8 0 54 -15 101 -34z m2627 -30 c70 -9 113 -20 138 -36 66
-41 69 -50 76 -289 8 -267 -2 -467 -36 -726 -50 -388 -66 -453 -133 -547 -87
-123 -352 -202 -565 -168 -45 7 -94 14 -108 16 -44 6 -134 43 -158 65 -64 60
-110 174 -130 322 -14 99 -14 322 -1 452 5 55 17 177 25 270 22 239 67 411
134 508 45 66 113 102 251 133 75 16 382 17 507 0z m-331 -1933 c-3 -27 -12
-50 -19 -52 -24 -8 -67 -60 -67 -80 0 -25 -9 -27 -25 -4 -9 12 -9 28 -3 57 5
23 8 60 5 84 l-5 42 61 0 60 0 -7 -47z m-21 -330 c-8 -68 -39 -156 -61 -174
-26 -21 -40 11 -47 103 -5 80 -4 84 24 122 16 22 29 47 29 55 0 9 11 3 31 -17
30 -31 31 -34 24 -89z"/>
<path d="M4628 4429 c-49 -28 13 -128 70 -114 49 12 70 76 36 109 -17 18 -80
21 -106 5z"/>
<path d="M4397 4402 c-10 -10 -17 -28 -17 -40 0 -27 37 -62 65 -62 29 0 65 36
65 65 0 48 -80 74 -113 37z"/>
<path d="M5256 4229 c-45 -54 -46 -99 -2 -99 30 0 80 86 65 113 -15 25 -34 21
-63 -14z"/>
<path d="M4993 4194 c-11 -28 17 -123 39 -135 33 -18 52 9 44 64 -10 66 -66
115 -83 71z"/>
<path d="M5444 4165 c-42 -44 -43 -78 -3 -83 54 -6 109 106 56 116 -10 2 -32
-12 -53 -33z"/>
<path d="M4129 6357 c-134 -114 -204 -156 -295 -178 -76 -18 -107 -58 -69 -89
82 -68 492 190 460 290 -11 35 -34 30 -96 -23z"/>
<path d="M4795 6320 c-9 -28 34 -118 80 -168 52 -59 127 -92 238 -107 l92 -12
-50 -23 c-137 -63 -234 -148 -329 -289 -95 -140 -145 -299 -146 -456 0 -166
53 -290 176 -411 65 -63 101 -90 176 -127 275 -136 546 -123 790 39 123 82
214 187 286 330 90 179 87 408 -8 612 -44 95 -173 218 -282 271 -137 66 -229
86 -395 86 -138 -1 -142 0 -138 20 10 39 -9 49 -108 56 -51 4 -113 13 -138 20
-45 14 -107 68 -162 142 -32 42 -71 51 -82 17z m852 -389 c121 -35 181 -69
264 -152 63 -63 81 -88 103 -146 92 -241 69 -424 -79 -621 -84 -111 -215 -201
-360 -248 -92 -29 -277 -27 -370 5 -102 35 -231 109 -290 167 -99 97 -146 247
-126 403 20 154 53 237 145 363 89 121 223 210 367 243 85 20 250 13 346 -14z"/>
<path d="M5210 5479 c-48 -19 -80 -60 -80 -101 0 -76 42 -118 116 -118 64 0
127 96 110 164 -13 50 -87 78 -146 55z"/>
<path d="M3373 6075 c-134 -24 -277 -108 -389 -227 -69 -74 -163 -253 -188
-359 -49 -206 8 -460 137 -605 80 -89 228 -184 346 -220 76 -24 240 -19 341
10 252 72 397 177 487 353 101 195 127 395 78 602 -49 204 -216 372 -422 425
-142 36 -270 43 -390 21z m362 -110 c249 -67 375 -249 375 -539 0 -259 -98
-453 -285 -568 -146 -89 -371 -132 -509 -97 -58 14 -182 83 -243 134 -146 122
-228 394 -178 590 9 33 38 105 65 161 40 83 60 111 116 164 105 98 199 149
314 170 68 13 276 4 345 -15z"/>
<path d="M3372 5480 c-67 -41 -78 -135 -22 -192 50 -49 134 -29 169 41 36 70
23 124 -39 156 -39 20 -69 19 -108 -5z"/>
</g>
</svg>
